<svg width="166" height="80" xmlns="http://www.w3.org/2000/svg"><g fill="#000" fill-rule="evenodd"><path d="M43.5238 12.7217A17.6685 17.6685 0 0047.4116.0312C42.943.4778 38.7873 2.6228 35.8381 6.019c-2.9492 3.307-4.4688 7.6413-4.156 12.0651 4.5131.1789 8.9375-1.8322 11.8417-5.3624m3.7984 6.0772c-6.4349-.402-11.9312 3.6646-14.8804 3.6646-2.9492 0-7.7751-3.4857-12.9143-3.3963-6.792.1788-12.9587 3.9772-16.1762 9.9201C-3.6196 40.963 1.5196 58.8376 8.3116 68.4c3.262 4.9603 7.1942 9.9206 12.4228 9.9206 5.228 0 6.8365-3.173 12.8249-3.173 5.9878 0 7.6857 3.173 12.9137 3.0836 5.2286-.0894 8.7587-4.9603 12.0207-9.6524 2.3238-3.3957 4.111-7.1497 5.3624-11.082-6.3455-2.8153-10.4122-9.1158-10.3672-16.0423.0894-6.0773 3.3069-11.7074 8.4905-14.8799-3.307-4.692-8.6244-7.5968-14.3445-7.7757M98.1302 12.454v12.3777h9.92v8.535h-9.92v29.0455c0 4.5132 1.9661 6.6137 6.39 6.6137 1.2063 0 2.3682-.0894 3.5745-.2682v8.4904c-1.9661.3572-3.9767.536-5.9878.4916-10.68 0-14.8804-4.0217-14.8804-14.21V33.5004h-7.507v-8.6688h7.6413V12.454h10.7694zm46.2497 65.1513h-11.5291l-19.036-52.7736h11.5286l13.227 42.0937 13.4058-42.0937h11.3053l-18.9016 52.7736z"/></g></svg>
