<svg xmlns="http://www.w3.org/2000/svg" xml:space="preserve" width="111.9994" height="49.2798" viewBox="0 0 1.1667 0.5133" id="svg2" version="1.1" shape-rendering="geometricprecision" text-rendering="geometricprecision" fill-rule="evenodd" clip-rule="evenodd"><defs id="defs4"><style type="text/css" id="style6">.fil0{fill:#1f1a17;fill-rule:nonzero}</style></defs><g id="Layer_x0020_1" fill="#000"><g id="_111644264" fill="#000"><g id="g11" fill="#000"><path id="_134052944" class="fil0" d="M.8683.3507a.0869.0869 0 100-.1738.0869.0869 0 000 .1738z" fill="#000"/><g id="g14" fill="#000"><path id="_134045216" class="fil0" fill="#000" d="M.2237.3192v.159h.1178v-.427H.2237V.212h-.075V.0513H.0308V.478h.1179v-.159z"/><path id="_121531200" class="fil0" d="M.6512.2638A.2172.2172 0 01.8562.047h.0243a.2172.2172 0 11-.2293.217zm.2171.1086a.1086.1086 0 100-.2172.1086.1086 0 000 .2172z" fill="#000"/><path id="_134053168" class="fil0" d="M.547.0513c.032 0 .123.0179.123.1089 0 .0732-.0351.095-.0624.1-.0197.0036.0589 0 .0589.091 0 .1305-.1143.127-.1143.127H.3665v-.427h.1804zm-.0752.104v.0642h.0626s.025-.003.025-.0337c0-.031-.0259-.0306-.0259-.0306H.4718zm0 .157v.0644h.0626s.025-.003.025-.0338C.5594.312.5335.3124.5335.3124H.4718z" fill="#000"/></g></g><path id="_128645496" class="fil0" d="M1.0893.1046h-.0111v-.052h.0195c.0134 0 .0212.0037.0212.0156 0 .0096-.0054.013-.0124.0137l.0134.0227h-.0133l-.012-.0219h-.0053v.022zM1.0992.074c.005 0 .0078-.001.0078-.0067 0-.0054-.0057-.0059-.0099-.0059h-.0078V.074h.0099zm-.0018.053c-.0258 0-.0487-.0178-.0487-.0482 0-.0306.0229-.0485.0487-.0485a.0467.0467 0 01.0484.0485.0467.0467 0 01-.0484.0483zm0-.0854c-.0192 0-.0348.0148-.0348.0372 0 .0221.0156.0372.0348.037V.116c.0187 0 .0347-.015.0347-.0372 0-.0224-.016-.0372-.0347-.0372z" fill="#000"/></g></g></svg>
