<svg xmlns="http://www.w3.org/2000/svg" width="504.752" height="99.2646"><path fill="#1E1E1E" d="M214.979 30.4556c-.5508-.0464-8.1582-.7066-9.2036-.8145-5.0518-.521-7.1626-5.7895-7.1626-9.1372v-2.5596c0-3.2968 1.0693-10.0732 9.337-10.0732h17.2152l-.0044-7.8633h-19.6943c-14.3472 0-19.1006 11.8032-19.1006 18.0527v4.318c0 5.1352 3.545 16.2748 15.668 17.6606 1.3594.1552 4.498.3803 6.0644.5068 5.8301.4707 8.357 4.8643 8.357 9.5488 0 1.331-.0235 3.1074-.0235 3.838 0 8.791-5.6909 10.701-8.9262 10.701h-18.3755v7.757h23.2534c10.5337 0 16.856-8.7218 16.856-19.168V48.708c0-8.6289-5.5118-17.5112-14.2603-18.2524zm36.4136-22.416l-12.8555-.0064v49.1084c0 6.0254 4.398 15.252 14.6846 15.252h8.543v-7.75h-5.7374c-2.4336 0-4.6318-1.6934-4.6318-5.7813v-33.733h13.7764v-7.8578h-13.7793v-9.232zM78.0586 43.5332c0 5.3911.0054 2.7866.0054 12.123 0 11.7872 7.8877 16.7432 13.6377 16.7432h12.8437v-7.7676H96.317c-2.357 0-5.415-.2968-5.415-7.2246V42.0996c0-16.0288 5.3964-16.9707 9.079-16.9707h10.2852v47.3115l12.7417-.0322V17.2749h-21.8354c-8.2823 0-23.1138 1.5405-23.1138 26.2583zM55.9624.0049v72.3877h12.7207L68.6811.0049H55.9625zm214.3501 43.5283c0 5.3911.0059 2.7866.0059 12.123 0 11.7872 7.8877 16.7432 13.6377 16.7432h12.8437v-7.7676h-8.2285c-2.3574 0-5.415-.2968-5.415-7.2246V42.0996c0-16.0288 5.3964-16.9707 9.079-16.9707h10.2852v47.3115l12.7422-.0322V17.2749h-21.836c-8.2822 0-23.1142 1.5405-23.1142 26.2583zm-114.6357 9.9736l-12.3086-36.2324h-13.4297l18.6235 54.6924-10.4785 27.2978h11.0898l32.6763-81.9843h-12.1313l-14.0415 36.2265zM31.3696.0005C20.1118.0005 0 .015 0 .015v72.3755l12.7544.001V7.8823h15.0361c4.3907 0 7.4971 5.3267 7.4971 14.6626 0 9.0474-2.7651 14.979-7.628 14.979h-9.2875v7.7534s6.829-.0024 13.1982-.0024c5.4492 0 16.4678-5.0112 16.4678-22.4316C48.038 4.5176 37.543.0005 31.3696.0005zm428.0161 17.2759h-22.703v55.1181l12.9306.002V25.119h10.4707c7.9746 0 8.7373 9.068 8.7373 17.3399v29.9326h12.7861V42.2817c0-15.0332-6.2656-25.0053-22.2217-25.0053zm-54.4482.0039c-22.3066 0-23.4385 17.872-23.4385 24.2607v7.1123c0 9.3223 3.331 23.749 23.749 23.749 18.5713 0 23.1426-13.082 23.1426-24.1845v-6.6392c0-3.2417-.0097-24.2983-23.4531-24.2983zm10.5479 30.0039c0 10.8164-1.8985 17.378-10.4551 17.378-7.2451 0-10.713-3.9142-10.713-17.4981v-4.6895c0-9.2353 1.1866-17.3774 10.6368-17.3774 9.29 0 10.5313 7.7798 10.5313 17.4048v4.7822zm-76.878-39.2446l-12.8554-.0064v49.1084c0 6.0254 4.3974 15.252 14.6845 15.252h8.543v-7.75h-5.7373c-2.4336 0-4.6318-1.6934-4.6318-5.7813v-33.733h13.7763v-7.8578h-13.7793v-9.232zM497.545 57.9463c-3.9814 0-7.208 3.2266-7.208 7.207s3.2266 7.208 7.208 7.208c3.9805 0 7.207-3.2275 7.207-7.208s-3.2265-7.207-7.207-7.207zm-.001 13.4248c-3.4335 0-6.2168-2.7842-6.2168-6.2178s2.7833-6.2178 6.2168-6.2178c3.4346 0 6.2188 2.7842 6.2188 6.2178s-2.7842 6.2178-6.2188 6.2178zm-137.3203 1.0283h12.7559V17.275h-12.7559v55.1245zm0-61.5727h12.7559V0h-12.7559v10.8267zM500.797 68.373c-.039-.1464-.0635-.3681-.0742-.667l-.0372-1.0497c-.0175-.4551-.1044-.7833-.2587-.9864-.1543-.2021-.3848-.3662-.6905-.4902.3487-.1807.6192-.421.8125-.7197.1944-.2989.291-.6817.291-1.1514 0-.8984-.3613-1.5156-1.083-1.8496-.3808-.1738-.8642-.2608-1.4502-.2608h-3.5595v7.8301h1.0605V65.67h2.3467c.4209 0 .7295.0479.9268.1446.3457.1738.5293.5166.5537 1.0283l.0644 1.3056c.0147.3067.0322.5118.0537.6192.0215.1064.0498.1933.085.2607h1.3008v-.1758c-.164-.0713-.2774-.2314-.3418-.4795zm-1.456-3.8857c-.2823.1992-.6651.2979-1.1485.2979h-2.3848v-2.6758h2.5195c.3526 0 .6338.0537.8448.1601.3945.2022.5908.583.5908 1.1407 0 .5185-.1406.8779-.4219 1.0771z"/></svg>
