<svg viewBox="0 0 872 211" fill="#e42145" width="115" height="28" class="rb-header_logo-icon" data-test-id="header-logo-icon" xmlns="http://www.w3.org/2000/svg"><path d="M832.07 75.52a7.49 7.49 0 01-7.48 7.5 7.48 7.48 0 117.48-7.5zm-1.58 0a5.86 5.86 0 10-5.89 5.88 5.8 5.8 0 005.89-5.88zm-4.07 1l1.56 2.38h-1.83l-1.14-2.07h-1.63v2.07h-1.58v-7.16h3c1.89 0 2.95.9 2.95 2.46a2.34 2.34 0 01-1.33 2.31v.01zm-3-1h1.45c.9 0 1.43-.46 1.43-1.28 0-.82-.53-1.25-1.43-1.25h-1.45v2.53zm-294.94 45.81a73.61 73.61 0 00-120-40.73V8.4a7.33 7.33 0 00-7.2-7.41h-19.4v206.33h19.42a7.33 7.33 0 007.2-7.41v-7.51a73.61 73.61 0 00120-40.73l-.02-30.34zm-72.09 62.07c-25.88 0-46.86-20.98-46.86-46.86s20.98-46.86 46.86-46.86 46.86 20.98 46.86 46.86-20.98 46.86-46.86 46.86zM367.5 1H348a7.33 7.33 0 00-7.2 7.4v72.2a73.56 73.56 0 00-116.34 28.8c-12.067-31.299-43.876-50.38-77.17-46.29-16.667 1.16-31.58 7.787-44.74 19.88V72.92c0-4-1.62-7.2-3.6-7.2s-6.84.15-10.79.33c0 0-11.71.54-17.8 2.26-6.09 1.72-11.88 5.29-17.35 10.67-5.47 5.38-9.64 13.85-9.64 13.85-1.77 3.57-3.18 3.22-3.18-.74v-17a7.22 7.22 0 00-7.2-7.2H8.19a7.22 7.22 0 00-7.2 7.2v10a7.22 7.22 0 007.2 7.2h2.91a7.22 7.22 0 017.2 7.2v76.36a7.22 7.22 0 01-7.2 7.2H8.19a7.22 7.22 0 00-7.2 7.2v10a7.22 7.22 0 007.2 7.2h46.28a7.22 7.22 0 007.2-7.2v-10a7.22 7.22 0 00-7.2-7.2h-1.62a7.22 7.22 0 01-7.2-7.2v-16.36c0-4 .17-10.43.37-14.38 0 0 1.29-25 4.6-32.35 3.31-7.35 8.4-12.41 15.27-15.2 6.87-2.79 24-3.77 24-3.77l3.09-.16c-8.8 12-13.25 26.27-13.25 42.82 0 22.567 7.563 40.5 22.69 53.8 15.127 13.3 33.347 19.95 54.66 19.95a91.76 91.76 0 0039.52-8.86c12.58-5.9 26-21.67 26-21.67 2.57-3 1.7-6.78-1.92-8.38l-11.08-4.89a12.33 12.33 0 00-12 1.84s-20.86 18.3-40 18.3a54.83 54.83 0 01-12.67-1.44c-10.45-2.88-19.53-9.72-26-18.67a82.25 82.25 0 01-7-16.21c-1.11-3.8 1.22-6.91 5.17-6.91h102.5a73.59 73.59 0 00121.2 49.09v7.47a7.33 7.33 0 007.2 7.41h19.5V1zM191.81 123.48h-73.62c-3.67 0-5.84-2.66-5.2-6.05a46.78 46.78 0 0177.68-12.55 44.74 44.74 0 015.8 11.86c1.39 3.71-.7 6.74-4.66 6.74zm101.1 59.92c-25.88 0-46.86-20.98-46.86-46.86s20.98-46.86 46.86-46.86 46.86 20.98 46.86 46.86-20.98 46.86-46.86 46.86zM600.98 62.47c-40.792 0-73.86 33.068-73.86 73.86s33.068 73.86 73.86 73.86 73.86-33.068 73.86-73.86-33.068-73.86-73.86-73.86zm0 120.84c-25.957 0-47-21.043-47-47s21.043-47 47-47 47 21.043 47 47-21.043 47-47 47zm206.32-.5h.3a18.84 18.84 0 01-12.11-5.32l-33.92-37c-5.41-5.41-5.43-5.43-.11-10.75l28.78-32.68a18.28 18.28 0 0112-5.42h1.4a7.25 7.25 0 007.27-7.24v-10a7.25 7.25 0 00-7.23-7.23h-44.43a7.25 7.25 0 00-7.23 7.23v10a7.2 7.2 0 007.13 7.23c3.92 0 5 2.43 2.33 5.41l-14.72 16.66a6.39 6.39 0 01-9.68.08l-15.4-16.79c-2.69-2.93-1.63-5.33 2.34-5.33h-.64a7.25 7.25 0 007.22-7.26v-10a7.25 7.25 0 00-7.23-7.23h-47.6a7.25 7.25 0 00-7.22 7.23v3.47a6.35 6.35 0 00-.08.79v6.49a6.52 6.52 0 006.5 6.5h2.63s2.59 0 3.33.49a10.12 10.12 0 013.45 2.85s2.71 3.16 5.13 5.79l30.4 33c5.14 5.14 5.41 5.41.1 10.73l-29.67 32.89a18.36 18.36 0 01-12 5.41h-6.84a6.52 6.52 0 00-6.5 6.5v10.68a7.25 7.25 0 007.23 7.23h49.79a7.25 7.25 0 007.23-7.23v-10a7.25 7.25 0 00-7.23-7.23h.06c-4 0-5.08-2.44-2.45-5.42l15.82-18.23a6.39 6.39 0 019.67-.11l19.12 20.76c2.69 2.92 1.64 5.32-2.33 5.32h-1.31c-4 0-4.94.93-4.94 4.91v10a7.25 7.25 0 007.23 7.23h44.41a7.25 7.25 0 007.23-7.23v-10a7.25 7.25 0 00-7.23-7.18z"/><circle cx="846.84" cy="185.78" r="24.42"/></svg>
