<svg width="289" height="80" xmlns="http://www.w3.org/2000/svg"><path d="M85.2876.0825c.1298-.046 11.9112-.0049 13.151-.0004l.1052.0004.0002 10.671c.0012 11.3167.0091 28.7459.0327 37.3506.0017 4.0372 1.4637 7.5715 4.469 10.3202 4.0077 3.661 8.7542 4.535 13.8354 2.988 5.057-1.533 8.1594-5.0707 9.4011-10.1832.3382-1.3284.4388-2.7521.4388-4.1221.0237-11.4425.0213-21.6747.0198-32.5747l-.0008-8.129c-.0006-3.2676-.004-5.4787-.005-6.125l-.0004-.1958s13.0498-.0486 13.1903 0c2.6828.2029 4.795 2.4383 4.795 5.1835v.1491h-.0134v21.1156c0 7.5785.0471 15.1569-.0153 22.7561-.0502 6.7981-2.3116 12.8973-6.505 18.2351-5.0794 6.4686-11.7058 10.478-19.7715 11.9434-17.2293 3.1112-33.3226-7.6773-37.105-23.9856-.515-2.2007-.7612-4.4968-.7751-6.76-.0555-14.4996-.0296-26.6372-.0296-40.8524V5.415c0-.0555-.0124-.104-.0124-.1491 0-2.7452 2.1122-4.9806 4.795-5.1835zm143.1502 0c.133-.046 11.913-.0049 13.1527-.0004l.1052.0004.0003 15.7425c.001 10.9524.0057 24.879.0274 32.2791.0088 4.0372 1.4637 7.5715 4.4708 10.3202 3.9921 3.661 8.7438 4.535 13.8354 2.988 5.043-1.533 8.1525-5.0707 9.3959-10.1832.319-1.3284.437-2.7521.437-4.1221.0291-13.8944.0153-26.0043.0153-39.6923l-.0007-1.6508c-.0025-3.3326-.012-5.4248-.0131-5.6594l-.0001-.022s13.0585-.0486 13.2094 0c2.6758.2029 4.788 2.4383 4.788 5.1835 0 .045 0 .0936-.0138.1491h-.008v21.1156c0 7.5785.0416 15.1569 0 22.7561-.0607 6.7981-2.3308 12.8973-6.5188 18.2351C276.248 73.9905 269.6269 78 261.556 79.4653c-17.2206 3.1112-33.319-7.6773-37.1031-23.9856-.5064-2.2007-.7596-4.4968-.7596-6.76-.0721-14.4996-.0472-26.6372-.0472-40.8524V5.266c0-2.7452 2.1158-4.9806 4.7917-5.1835zM40.2406 79.2205l.0314-.0015.0101.0009-.0415.0006zM2.0518.0138C6.97-.0087 9.8158 0 14.6681.0138c.0416-.0028.0989-.0028.156-.0028 2.0534 0 3.8344 1.1914 4.6755 2.9221.0711.1006.1162.196.1456.2914 3.0748 8.7525 5.617 16.0153 8.6866 24.7591 2.988 8.5097 5.9691 17.0298 8.9606 25.5517.118.3364.13.9243.6833.7682.2775-.0815.5445-.4457.6468-.7283 1.2834-3.6037 2.5337-7.1935 3.7927-10.7971 4.7916-13.669 8.9728-25.4043 13.7696-39.0628.04-.1197.0953-.248.1768-.3538C57.104 1.4018 58.9595.0353 61.148.011h.1404c4.769 0 7.7519-.011 12.5678.0028 1.3735.0007 2.2423.906 2.0759 2.1199-.0417.2428-.1302.4717-.215.7075-7.4068 20.4861-14.5257 40.1484-21.8336 60.338L48.641 78.1278c-3.1562.633-5.9327 1.0093-8.4004 1.0926l.0314-.0015-.0098-.0002a78.4973 78.4973 0 00-.5885-.002l-1.1535-.0005c-7.561-.437-11.8463-3.85-14.6609-10.3688-.4803-1.3336-.9642-2.7122-1.5226-4.2591C14.9456 43.986 7.5665 23.363.1667 2.7348-.3709 1.212.427.022 2.0518.0138zm153.7847.2184c6.427-.0027 10.1364-.0138 16.5841 0 3.1372 0 6.2865 0 9.4393.1024 6.8397.2376 13.1938 2.1955 18.9756 5.853 9.7431 6.1655 16.0365 14.8816 18.0273 26.2475 2.5095 14.2967-1.7705 26.5627-12.403 36.465-5.6482 5.258-12.4168 8.3883-20.0265 9.649a35.6415 35.6415 0 01-5.676.4925c-9.3195.0365-15.7205.007-25.04.0365-2.87 0-5.1974-2.3377-5.1974-5.2043V5.4321c0-2.8736 2.3273-5.2026 5.1973-5.2026.0486 0 .0805.0027.1193.0027zM284.392 70.8925c2.2649 0 4.0841 1.8001 4.0841 4.0702 0 2.2562-1.8192 4.0857-4.084 4.0857-2.2527 0-4.084-1.8295-4.084-4.0857 0-2.27 1.8313-4.0702 4.084-4.0702zm0 .5619c-1.944 0-3.5255 1.5365-3.5255 3.5083 0 1.9423 1.5815 3.5221 3.5255 3.5221 1.9407 0 3.517-1.5798 3.517-3.5221 0-1.9718-1.5763-3.5083-3.517-3.5083zm.3434 1.1862c.7891 0 1.4793.5584 1.4793 1.4272 0 1.037-.9278 1.3926-1.1862 1.3926l1.24 1.8573h-.7631l-1.2156-1.8434h-.8447v1.8434h-.6225v-4.6771h1.9128zm0 .541h-1.2903v1.7221h1.2903c.411 0 .8463-.3555.8463-.8359 0-.5098-.4352-.8862-.8463-.8862zM168.9904 16.664c-1.0114 0-1.0267.0121-1.0267 1.0388l.0002 43.842c.0033.9714.0647.9714 1.1479.9714 3.099 0 6.2102.012 9.3022-.0192 1.0856-.007 2.173-.033 3.2464-.1543 5.591-.626 10.2578-3.0557 13.877-7.3617 4.1154-4.88 5.7333-10.6063 5.39-16.9483-.2341-4.3199-1.4654-8.3363-3.9263-11.8914-4.025-5.794-9.5987-8.9849-16.65-9.3473-3.7892-.1976-7.5714-.097-11.3607-.13z" fill="#2D6DBE" fill-rule="nonzero"/></svg>
